<svg width="31" height="25" viewBox="0 0 31 25" fill="none" xmlns="http://www.w3.org/2000/svg">
<path d="M15.4998 0.833374H5.2915C2.87067 0.833374 0.916504 2.78754 0.916504 5.20837V16.875C0.916504 19.2959 2.87067 21.25 5.2915 21.25L3.83317 22.7084V24.1667H5.2915L8.20817 21.2063L11.1248 21.25V13.9584H3.83317V3.72087L16.9582 3.75004V6.66671H19.8748V5.20837C19.8748 2.78754 17.9207 0.833374 15.4998 0.833374ZM5.2915 15.4167C6.09359 15.4167 6.74984 16.073 6.74984 16.875C6.74984 17.6771 6.09359 18.3334 5.2915 18.3334C4.48942 18.3334 3.83317 17.6771 3.83317 16.875C3.83317 16.073 4.48942 15.4167 5.2915 15.4167ZM27.9978 9.08754C27.7936 8.50421 27.2394 8.12504 26.5832 8.12504H16.0978C15.4269 8.12504 14.8873 8.50421 14.6686 9.08754L12.5832 15.0813L12.5978 23.1167C12.5978 23.6709 13.0498 24.1667 13.604 24.1667H14.5082C15.0623 24.1667 15.4998 23.6125 15.4998 23.0584V21.25H27.1665V23.0584C27.1665 23.6125 27.6186 24.1667 28.1728 24.1667H29.0623C29.6165 24.1667 30.0686 23.6709 30.0686 23.1167L30.0832 21.1188V15.0813L27.9978 9.08754ZM16.0978 9.58337H26.5832L28.0853 13.9584H14.5957L16.0978 9.58337ZM15.4998 18.3334C14.6978 18.3334 14.0415 17.6771 14.0415 16.875C14.0415 16.073 14.6978 15.4167 15.4998 15.4167C16.3019 15.4167 16.9582 16.073 16.9582 16.875C16.9582 17.6771 16.3019 18.3334 15.4998 18.3334ZM27.1665 18.3334C26.3644 18.3334 25.7082 17.6771 25.7082 16.875C25.7082 16.073 26.3644 15.4167 27.1665 15.4167C27.9686 15.4167 28.6248 16.073 28.6248 16.875C28.6248 17.6771 27.9686 18.3334 27.1665 18.3334Z" fill="white"/>
</svg>
