<svg width="21" height="31" viewBox="0 0 21 31" fill="none" xmlns="http://www.w3.org/2000/svg">
<path d="M19.2498 9.66663C19.2498 4.83954 15.3269 0.916626 10.4998 0.916626C5.67275 0.916626 1.74984 4.83954 1.74984 9.66663C1.74984 16.2291 10.4998 25.7083 10.4998 25.7083C10.4998 25.7083 19.2498 16.2291 19.2498 9.66663ZM7.58317 9.66663C7.58317 8.06246 8.89567 6.74996 10.4998 6.74996C12.104 6.74996 13.4165 8.06246 13.4165 9.66663C13.4165 11.2708 12.1186 12.5833 10.4998 12.5833C8.89567 12.5833 7.58317 11.2708 7.58317 9.66663ZM0.291504 27.1666V30.0833H20.7082V27.1666H0.291504Z" fill="white"/>
</svg>
