<svg width="15" height="15" viewBox="0 0 15 15" fill="none" xmlns="http://www.w3.org/2000/svg">
<path d="M3.35759 14.8759H0.247768V4.94484H3.35759V14.8759ZM1.801 3.59015C0.806585 3.59015 0 2.77335 0 1.78722C7.11763e-09 1.31354 0.189748 0.859266 0.527502 0.524327C0.865256 0.189388 1.32335 0.0012207 1.801 0.0012207C2.27866 0.0012207 2.73675 0.189388 3.07451 0.524327C3.41226 0.859266 3.60201 1.31354 3.60201 1.78722C3.60201 2.77335 2.79509 3.59015 1.801 3.59015ZM14.9967 14.8759H11.8935V10.0415C11.8935 8.88937 11.8701 7.41183 10.2767 7.41183C8.65982 7.41183 8.41205 8.66359 8.41205 9.95851V14.8759H5.30558V4.94484H8.28817V6.29952H8.3317C8.74687 5.51925 9.76105 4.69581 11.2741 4.69581C14.4214 4.69581 15 6.75109 15 9.42062V14.8759H14.9967Z" fill="white"/>
</svg>
