<svg width="51" height="60" viewBox="0 0 51 60" fill="none" xmlns="http://www.w3.org/2000/svg">
<path d="M25.5417 0.833374C11.8625 0.833374 0.75 11.9459 0.75 25.625C0.75 39.3042 11.8625 50.4167 25.5417 50.4167H27V59.1667C41.175 52.3417 50.3333 38.75 50.3333 25.625C50.3333 11.9459 39.2208 0.833374 25.5417 0.833374ZM28.4583 43.125H22.625V37.2917H28.4583V43.125ZM28.4583 32.9167H22.625C22.625 23.4375 31.375 24.1667 31.375 18.3334C31.375 15.125 28.75 12.5 25.5417 12.5C22.3333 12.5 19.7083 15.125 19.7083 18.3334H13.875C13.875 11.8875 19.0958 6.66671 25.5417 6.66671C31.9875 6.66671 37.2083 11.8875 37.2083 18.3334C37.2083 25.625 28.4583 26.3542 28.4583 32.9167Z" fill="white"/>
</svg>
