<svg width="60" height="54" viewBox="0 0 60 54" fill="none" xmlns="http://www.w3.org/2000/svg">
<path d="M30.0002 12.4167V0.75H0.833496V53.25H59.1668V12.4167H30.0002ZM12.5002 47.4167H6.66683V41.5833H12.5002V47.4167ZM12.5002 35.75H6.66683V29.9167H12.5002V35.75ZM12.5002 24.0833H6.66683V18.25H12.5002V24.0833ZM12.5002 12.4167H6.66683V6.58333H12.5002V12.4167ZM24.1668 47.4167H18.3335V41.5833H24.1668V47.4167ZM24.1668 35.75H18.3335V29.9167H24.1668V35.75ZM24.1668 24.0833H18.3335V18.25H24.1668V24.0833ZM24.1668 12.4167H18.3335V6.58333H24.1668V12.4167ZM53.3335 47.4167H30.0002V41.5833H35.8335V35.75H30.0002V29.9167H35.8335V24.0833H30.0002V18.25H53.3335V47.4167ZM47.5002 24.0833H41.6668V29.9167H47.5002V24.0833ZM47.5002 35.75H41.6668V41.5833H47.5002V35.75Z" fill="white"/>
</svg>
