<svg width="48" height="57" viewBox="0 0 48 57" fill="none" xmlns="http://www.w3.org/2000/svg">
<path d="M23.9998 0.833313C11.1082 0.833313 0.666504 2.29165 0.666504 12.5V40.2083C0.666504 45.8375 5.24567 50.4166 10.8748 50.4166L6.49984 54.7916V56.25H41.4998V54.7916L37.1248 50.4166C42.754 50.4166 47.3332 45.8375 47.3332 40.2083V12.5C47.3332 2.29165 36.8915 0.833313 23.9998 0.833313ZM10.8748 44.5833C8.454 44.5833 6.49984 42.6291 6.49984 40.2083C6.49984 37.7875 8.454 35.8333 10.8748 35.8333C13.2957 35.8333 15.2498 37.7875 15.2498 40.2083C15.2498 42.6291 13.2957 44.5833 10.8748 44.5833ZM21.0832 27.0833H6.49984V12.5H21.0832V27.0833ZM37.1248 44.5833C34.704 44.5833 32.7498 42.6291 32.7498 40.2083C32.7498 37.7875 34.704 35.8333 37.1248 35.8333C39.5457 35.8333 41.4998 37.7875 41.4998 40.2083C41.4998 42.6291 39.5457 44.5833 37.1248 44.5833ZM41.4998 27.0833H26.9165V12.5H41.4998V27.0833Z" fill="white"/>
</svg>
